PathFileType	4	(X/Y/Z)	Patient4_TMGait_0pt8_01_right_16.trc.trc
DataRate	CameraRate	NumFrames	NumMarkers	Units	OrigDataRate	OrigDataStartFrame	OrigNumFrames
88.607594936709	88.607594936709	5	33	mm	88.607594936709	36	       141
Frame#	Time	Sacral			L.Shoulder			Chest			R.Shoulder			Neck			R.ASIS			L.ASIS			R.Thigh.Superior			R.Thigh.Lateral			R.Thigh.Inferior			R.Patella			L.Thigh.Superior			L.Thigh.Lateral			L.Thigh.Inferior			L.Patella			L.Shank.Superior			L.Shank.Lateral			L.Shank.Inferior			R.Shank.Superior			R.Shank.Lateral			R.Shank.Inferior			R.Heel			R.Midfoot.Superior			R.Midfoot.Lateral			R.Toe			L.Heel			L.Midfoot.Lateral			L.Midfoot.Superior			L.Toe			L.Elbow			L.Wrist			R.Elbow			R.Wrist			
		X1	Y1	Z1	X2	Y2	Z2	X3	Y3	Z3	X4	Y4	Z4	X5	Y5	Z5	X6	Y6	Z6	X7	Y7	Z7	X8	Y8	Z8	X9	Y9	Z9	X10	Y10	Z10	X11	Y11	Z11	X12	Y12	Z12	X13	Y13	Z13	X14	Y14	Z14	X15	Y15	Z15	X16	Y16	Z16	X17	Y17	Z17	X18	Y18	Z18	X19	Y19	Z19	X20	Y20	Z20	X21	Y21	Z21	X22	Y22	Z22	X23	Y23	Z23	X24	Y24	Z24	X25	Y25	Z25	X26	Y26	Z26	X27	Y27	Z27	X28	Y28	Z28	X29	Y29	Z29	X30	Y30	Z30	X31	Y31	Z31	X32	Y32	Z32	X33	Y33	Z33	

36	18.115000000000	928.626076991564	985.045638571664	464.350518631067	1088.570530375684	1425.160375130536	293.031265361787	1186.225164139461	1360.531974407452	459.005712179772	1087.466577926300	1424.047667560199	629.163882075569	1057.983027044764	1481.704358093348	448.463493981340	1158.553542332369	934.478624526384	588.613535040133	1147.100711976350	949.784946510136	312.211189401383	1231.559385354882	752.093466961700	552.222050020954	1171.861074104820	630.245173292819	612.722149351181	1257.489848234454	591.792816647737	532.850050795501	1273.488496688703	500.815908317364	539.890548034146	1173.167654597755	722.982701597787	333.895465669578	1073.973302026102	613.791629017462	270.461270113859	1155.599662612412	523.043594588315	325.414634596460	1140.057202715824	437.911701176509	321.727487163417	1065.514335325444	384.934349801620	320.338098106089	919.703068172555	352.906627963420	279.258568319217	898.271760845744	227.462518860514	339.392456199386	1248.163342055413	408.852676837924	545.968439834284	1181.152426452168	300.672878877894	606.022006694258	1230.211838827850	208.887200556177	542.875545773970	1103.835228382279	41.876820864436	507.406613683329	1274.631190828609	98.910822168273	547.883590324954	1185.627594233629	36.915343274903	584.235949337766	1393.248507727252	49.159912777137	577.328338130505	703.080907330135	175.843478221118	385.171586137904	757.080229900754	121.563909402209	308.954144313553	862.074912443024	127.700538060137	328.300433082043	935.321338637248	30.459172192729	311.140205307995	1163.830229235090	1096.054299417785	148.047096692132	1415.209855659794	1104.179896135912	188.376913676968	978.805979371796	1090.350125245352	728.777625113599	963.582003972268	832.463559849786	746.072232007367	
37	18.126285714286	928.624007298595	985.976021580701	467.494866672604	1086.379233061384	1426.509301697050	295.132979408858	1185.831828739305	1361.764851593251	460.022533314102	1088.703246699589	1424.765951589862	631.250135606866	1057.404129283124	1482.818476856854	450.898505781291	1159.460447666706	935.990059752945	589.985251433910	1146.442964200806	950.545682631754	313.298112165399	1230.404639095820	751.444249804051	555.113500415825	1168.495872152382	630.382233072266	614.641013223054	1254.103666493892	591.007959481232	535.156066171208	1268.793159253455	499.960388821146	541.721695208655	1178.222962875735	725.818055860017	334.850448774178	1082.826361521817	614.087678774991	270.898463889357	1167.800938725936	525.226841699166	324.954447663303	1153.457893474559	438.960932562794	320.881789530750	1077.252004471820	386.178912702157	319.942638820114	930.011606112065	359.327452152206	279.670507703654	904.877526536221	234.448116027565	339.601397441250	1242.489984304585	408.238603768647	547.555827367373	1174.329815211379	300.533695876215	607.149967069104	1222.548144640775	208.502376007635	543.735124848951	1094.980420311383	41.878592898337	507.666235078547	1265.876379307295	99.058508334020	548.333695345302	1176.744424123912	36.922291211015	584.547124604992	1384.422483350892	48.964592255341	577.644704267534	708.428643828240	192.528281663545	386.426671751277	758.955615726630	135.347531814382	309.662379521079	864.594327331182	134.984725999366	328.442388337536	931.001679876955	30.298328267591	310.196366944892	1154.935209185389	1094.445401681855	152.194868633524	1407.179510026022	1091.191956279750	189.794583359349	989.428340546798	1087.595518988444	732.744757953058	985.468144413094	829.056930836250	749.228934792992	
38	18.137571428571	928.455724801789	986.971353960007	470.545273653989	1083.938468114357	1427.836774227283	297.129402404702	1185.305673468238	1362.997502661069	460.861674807390	1089.928606402132	1425.423321846548	633.241128553453	1056.758401710363	1483.937255451769	453.254441477049	1160.113157794764	937.488757688551	591.197950247046	1145.617643777924	951.332122613643	314.308116497925	1228.809450967836	750.711458353079	558.084946611724	1164.541713441109	630.476355630837	616.517462841176	1250.151566208194	590.178545767086	537.463126835694	1263.459258652984	499.100209185583	543.559853389254	1183.082361951470	729.018305994310	335.677062909039	1091.449119731491	614.922409668632	271.208643870455	1179.657869815422	528.081304984460	324.429841379696	1166.729632624694	440.778185707284	320.101451592285	1089.172450080045	388.029974378122	319.572762393554	940.778590033761	365.743707330012	280.129668191733	912.428447931943	241.467944660297	339.972313999176	1236.283318257983	407.656240186264	549.129397372955	1167.088559741313	300.362038032500	608.222160976831	1214.623243012028	208.156543463347	544.591711860050	1086.056249004145	41.895609331591	507.902927801067	1257.032830706574	99.135704275423	548.749344669439	1167.796393466939	36.911758122817	584.829017945344	1375.548280450061	48.640862608279	577.915867634379	715.315898379754	207.941180456584	388.105931588630	762.561537382930	148.644988417670	310.577711343408	868.572374664865	142.616229553587	328.642451271277	928.781716708684	30.967745785947	308.833324947140	1145.850882927208	1092.952148739943	156.316892225474	1398.459529795650	1077.155324630659	191.109134691736	1000.490579297376	1085.013325030064	736.588599940653	1008.218332987495	826.277301584102	752.195784616186	
39	18.148857142857	928.141579232846	988.044813846670	473.468556140207	1081.300489201683	1429.148084527561	299.009782897630	1184.660887505319	1364.235427836858	461.533205280534	1091.138360569259	1426.052201445505	635.123993566358	1056.058728774913	1485.079368923280	455.502311124258	1160.511543929795	938.979896916241	592.268582896817	1144.613376817055	952.190661317114	315.285278514450	1226.787265679486	749.976715687837	560.974011989706	1160.135391480257	630.594532618320	618.330783393030	1245.694435288152	589.356439727991	539.690591525945	1257.552112492420	498.275877145989	545.373069766381	1187.652040001169	732.587056768448	336.427925688889	1099.728453484196	616.328030872097	271.412300980572	1191.033945223791	531.618351110948	323.847186169459	1179.735579196699	443.374585461341	319.316795197333	1101.151168982234	390.482858649447	319.171308518477	951.836650838534	371.996116830916	280.630811563207	920.918398906131	248.271109616858	340.443860511343	1229.617599921789	407.136313983609	550.656769420130	1159.505497402683	300.199255876384	609.243117948075	1206.482196611208	207.868856999476	545.433113137406	1077.065333673310	41.940076312794	508.130831855985	1248.118426247636	99.146030669162	549.135719026021	1158.791267366101	36.893042329677	585.084234082979	1366.627582246430	48.216015306827	578.142829676449	723.632940048777	221.437778000518	390.145696787241	767.952197387659	160.850494181367	311.658039351856	874.140246443165	150.238762458063	328.841340916216	929.105091849277	32.560188649575	307.069211203724	1136.636094212443	1091.572444813933	160.398600332588	1388.938796553262	1062.183546072902	192.318541928410	1012.029170467285	1082.653976464951	740.249678835853	1031.712508323850	824.236485843695	754.944614896230	
40	18.160142857143	927.704642424629	989.206614614923	476.241059318496	1078.527810337708	1430.456632050535	300.768369015750	1183.912685081352	1365.489476760247	462.054459051213	1092.322789004271	1426.700433073530	636.884320793823	1055.315075270876	1486.266320755577	457.615452949538	1160.662457367137	940.468404315147	593.221512224433	1143.421961616993	953.169579568860	316.269676847274	1224.355934910571	749.308334857958	563.643494932724	1155.382578109794	630.788111202973	620.060167286436	1240.783213446371	588.580090008051	541.776418954906	1251.128764158071	497.521168629083	547.125131933234	1191.865314961711	736.519784170288	337.151260333545	1107.593711191177	618.309361760344	271.524796105045	1201.840293864253	535.825270625112	323.206384519744	1192.375557226525	446.741021282886	318.463118892708	1113.103666800549	393.504745628157	318.686293644007	963.062137317437	377.911137320795	281.148813596424	930.358741607336	254.603107064520	340.947783475708	1222.556743734563	406.704615247489	552.113034568140	1151.633298241552	300.081142330721	610.209049026007	1198.161926040386	207.656216090300	546.252142285557	1068.017130484000	42.018651524695	508.359477809681	1239.154983239787	99.106451348190	549.498915718268	1149.742667143478	36.875131782653	585.315668931493	1357.664802399815	47.732553163011	578.331211976658	733.266247375558	232.492162453722	392.432073844964	775.159107047931	171.415369825906	312.835502785323	881.413833465172	157.467289605213	328.989612030822	932.345127328467	35.025532391720	304.972761669136	1127.342962410955	1090.318321128051	164.433796023978	1378.498934481811	1046.406590922171	193.424537074542	1024.071569609350	1080.592021953701	743.672935917921	1055.831533554744	823.051798313972	757.444733653329	
